<svg width="688" height="670" viewBox="0 0 688 670" fill="none" xmlns="http://www.w3.org/2000/svg">
<path d="M363.923 210.933V296.538L324.84 320.405V234.799L363.923 210.933Z" fill="url(#paint0_linear_2345_1145)"/>
<path d="M324.84 234.799V320.405L285.516 296.546V210.942L324.84 234.799Z" fill="url(#paint1_linear_2345_1145)"/>
<path d="M363.924 210.933L324.84 234.799L285.516 210.942L324.6 187.076L363.924 210.933Z" fill="url(#paint2_linear_2345_1145)"/>
<path d="M331.133 200.869L305.177 210.887L309.503 213.511L314.174 211.689L321.63 216.212L318.651 219.063L322.977 221.687L339.341 205.852L331.133 200.869ZM318.721 209.901L330.935 205.069L332.441 205.984L324.551 213.44L318.721 209.901Z" fill="url(#paint3_linear_2345_1145)"/>
<path opacity="0.5" d="M285.516 210.942V212.112L324.84 235.97L363.924 212.101V210.933L324.84 234.799L285.516 210.942Z" fill="white"/>
<path d="M424.153 176.873V333.075L385.069 356.943V200.741L424.153 176.873Z" fill="url(#paint4_linear_2345_1145)"/>
<path d="M385.069 200.741V356.943L345.745 333.086V176.884L385.069 200.741Z" fill="url(#paint5_linear_2345_1145)"/>
<path d="M424.153 176.873L385.069 200.741L345.745 176.884L384.829 153.016L424.153 176.873Z" fill="url(#paint6_linear_2345_1145)"/>
<path d="M390.656 180.602C393.4 180.987 395.279 180.644 397.676 179.179C401.72 176.71 400.922 174.332 396.631 171.728L388.261 166.652L367.095 179.575L375.594 184.731C379.85 187.313 384.349 187.811 388.588 185.224C391.322 183.555 391.694 182.185 390.656 180.602ZM384.422 182.43C382.328 183.708 380.826 183.441 379.04 182.358L375.086 179.961L380.26 176.803L384.212 179.201C385.938 180.247 386.164 181.367 384.422 182.43ZM387.733 176.935L383.873 174.594L388.918 171.511L392.743 173.832C394.377 174.824 394.474 175.793 392.726 176.862C391.047 177.892 389.427 177.963 387.733 176.935Z" fill="url(#paint7_linear_2345_1145)"/>
<path opacity="0.5" d="M345.745 176.884V178.052L385.069 201.91L424.153 178.043V176.873L385.069 200.741L345.745 176.884Z" fill="white"/>
<path d="M429.418 189.143C429.418 189.143 424.34 209.192 422.192 214.707C414.121 221.537 405.522 225.834 405.522 225.834L409.89 233.902C409.89 233.902 423.809 228.102 431.108 222.365L436.629 189.145H429.418V189.143Z" fill="#596782"/>
<path d="M415.627 216.733L395.846 206.47L395.074 207.226L404.914 237.73L423.941 248.749L424.704 247.997L415.627 216.733Z" fill="#4F5473"/>
<path d="M414.871 217.491L395.074 207.226L404.151 238.488L423.941 248.749L414.871 217.491Z" fill="#2D3041"/>
<path d="M399.005 222.144C399.005 222.144 400.738 220.146 401.11 220.06C401.485 219.974 404.617 220.937 405.764 221.103C406.911 221.265 407.523 221.442 407.563 221.68C407.603 221.925 406.518 222.646 405.389 222.843C404.264 223.042 402.636 223.042 402.636 223.042C402.636 223.042 406.435 225.363 407.038 226.004C407.646 226.64 407.372 228.11 407.457 230.106C407.538 232.1 407.498 234.951 407.269 235.02C407.038 235.084 406.308 234.931 405.559 234.012C404.806 233.088 403.908 232.385 403.493 232.385C403.074 232.385 402.599 233.126 402.599 233.126C402.599 233.126 401.652 233.174 401.235 232.449C400.818 231.726 398.981 225.188 398.797 224.815C398.609 224.443 398.272 224.008 398.333 223.524C398.397 223.042 399.005 222.144 399.005 222.144Z" fill="url(#paint8_linear_2345_1145)"/>
<path d="M434.961 308.242C434.961 308.242 439.373 348.31 439.552 352.861C439.735 357.412 439.165 363.84 438.037 366.895L439.841 370.444L449.637 367.995C449.637 367.995 448.579 361.66 448.105 357.182C447.632 352.706 445.093 307.877 445.093 307.877L434.961 308.242Z" fill="url(#paint9_linear_2345_1145)"/>
<path d="M448.046 356.524C447.448 349.466 445.093 307.879 445.093 307.879L434.961 308.242C434.961 308.242 439.373 348.31 439.552 352.861C439.644 355.115 439.549 357.828 439.295 360.365C441.827 359.686 445.157 358.499 448.046 356.524Z" fill="#FBE0D5"/>
<path d="M421.838 377.348C421.838 377.348 421.958 379.029 422.076 379.474C425.517 380.784 431.097 380.323 435.022 379.197C438.944 378.066 442.966 376.782 445.757 376.333C448.544 375.88 450.878 374.921 450.878 374.921L450.701 372.151L421.838 377.348Z" fill="#FFC8B8"/>
<path d="M431.174 377.142L431.017 377.133L427.966 370.762C427.966 370.762 435.22 366.687 436.76 365.086C438.303 363.488 438.374 362.036 439.269 362.326C440.162 362.62 442.25 363.314 442.519 364.224C442.79 365.133 442.401 366.536 441.527 368.092C440.649 369.651 431.174 377.142 431.174 377.142Z" fill="#27638C"/>
<path d="M449.455 366.192C449.455 366.192 444.361 366.397 442.695 366.03C441.028 365.659 440.628 364.956 439.552 365.657C438.477 366.36 431.925 370.82 431.07 371.492C430.218 372.164 430.397 372.756 430.559 374.198C430.72 375.641 431.172 377.14 431.172 377.14C431.172 377.14 438.444 375.668 441.906 374.496C445.366 373.324 450.701 372.148 450.701 372.148C450.701 372.148 450.244 367.628 449.455 366.192Z" fill="#A33657"/>
<path d="M431.017 377.133C431.017 377.133 430.22 372.679 427.854 370.663C427.854 370.663 424.507 373.216 423.216 374.357C421.926 375.497 421.839 377.349 421.839 377.349C421.839 377.349 426.082 378.138 431.017 377.133Z" fill="white"/>
<path d="M431.784 372.938C431.591 372.922 431.408 372.801 431.322 372.601C430.585 370.902 429.518 370.225 429.507 370.217C429.245 370.06 429.151 369.708 429.302 369.428C429.455 369.151 429.789 369.054 430.055 369.211C430.109 369.248 431.435 370.057 432.324 372.122C432.45 372.412 432.328 372.754 432.052 372.885C431.965 372.929 431.873 372.942 431.784 372.938Z" fill="white"/>
<path d="M433.477 371.775C433.282 371.762 433.101 371.638 433.014 371.439C432.279 369.737 431.21 369.063 431.198 369.056C430.936 368.897 430.847 368.543 430.998 368.267C431.15 367.993 431.483 367.896 431.747 368.053C431.803 368.088 433.126 368.897 434.019 370.961C434.142 371.253 434.021 371.596 433.744 371.728C433.656 371.768 433.565 371.782 433.477 371.775Z" fill="white"/>
<path d="M435.169 370.614C434.975 370.599 434.792 370.479 434.705 370.276C433.972 368.576 432.903 367.902 432.893 367.895C432.629 367.736 432.536 367.381 432.688 367.106C432.839 366.828 433.174 366.731 433.438 366.888C433.494 366.923 434.817 367.734 435.708 369.796C435.833 370.088 435.713 370.431 435.435 370.563C435.348 370.603 435.256 370.621 435.169 370.614Z" fill="white"/>
<path d="M436.862 369.452C436.666 369.436 436.485 369.313 436.396 369.114C435.663 367.412 434.592 366.735 434.58 366.729C434.321 366.569 434.233 366.216 434.384 365.939C434.533 365.667 434.865 365.572 435.131 365.725C435.187 365.758 436.509 366.57 437.401 368.632C437.528 368.924 437.406 369.268 437.128 369.401C437.039 369.445 436.951 369.459 436.862 369.452Z" fill="white"/>
<path d="M438.553 368.292C438.358 368.278 438.176 368.154 438.089 367.953C437.356 366.254 436.287 365.577 436.276 365.573C436.012 365.413 435.92 365.06 436.069 364.783C436.222 364.503 436.558 364.406 436.824 364.567C436.878 364.6 438.202 365.409 439.092 367.474C439.217 367.767 439.097 368.11 438.817 368.24C438.734 368.285 438.643 368.296 438.553 368.292Z" fill="white"/>
<path d="M428.636 248.598C428.636 248.598 430.314 281.754 433.376 310.5C436.44 339.251 437.952 353.32 437.952 353.32C437.952 353.32 443.949 354.786 450.324 352.096C450.324 352.096 446.801 318.453 446.568 310.991C446.334 303.527 450.324 248.596 450.324 248.596L428.636 248.598Z" fill="#1A1E26"/>
<path d="M455.11 374.363C455.11 374.363 455.261 386.094 455.261 388.912C455.261 391.726 455.671 395.084 457.872 395.842C460.07 396.6 464.437 396.77 465.81 395.203C467.18 393.642 467.18 389.129 467.18 387.866C467.18 386.602 466.66 374.361 466.66 374.361H455.11V374.363Z" fill="#FFC8B8"/>
<path d="M452.731 321.48C452.731 321.48 456.474 361.351 456.474 365.435C456.474 369.521 455.52 371.68 455.887 377.619H466.128C466.128 377.619 465.134 369.753 464.695 365.588C464.255 361.426 463.372 321.48 463.372 321.48H452.731Z" fill="url(#paint10_linear_2345_1145)"/>
<path d="M452.731 321.48C452.731 321.48 456.316 359.68 456.469 365.124C459.564 364.45 462.39 362.909 464.469 361.505C464.006 350.254 463.372 321.48 463.372 321.48H452.731Z" fill="#FBE0D5"/>
<path d="M455.633 388.74V388.298C455.633 388.298 457.046 373.868 457.074 372.484C457.1 371.107 458.204 369.291 461.299 369.509C464.391 369.722 464.622 371.782 464.778 373.38C464.931 374.976 466.598 387.867 466.598 387.867L466.495 388.298L455.633 388.74Z" fill="#27638C"/>
<path d="M456.558 368.492C456.558 368.492 455.227 369.596 455.124 373.316C455.018 377.033 455.595 386.638 455.633 388.296C455.633 388.296 458.181 386.742 458.937 386.275C459.693 385.804 459.898 384.942 459.898 383.534C459.898 382.124 459.898 376.275 459.898 375.301C459.898 374.326 459.796 373.302 458.8 372.314C457.802 371.331 456.586 369.874 456.558 368.492Z" fill="#A33657"/>
<path d="M464.832 368.492C464.832 368.492 466.426 370.25 466.598 372.18C466.772 374.111 466.598 387.867 466.598 387.867C466.598 387.867 463.918 386.494 463.336 385.877C462.752 385.267 462.51 384.651 462.51 383.819C462.51 382.991 462.51 375.878 462.51 374.759C462.51 373.641 462.406 373.05 463.025 372.316C463.643 371.583 464.747 370.018 464.832 368.492Z" fill="#A33657"/>
<path d="M455.633 388.74C455.633 388.74 455.399 391.726 457.079 393.097C458.767 394.473 461 394.4 462.988 394.217C464.981 394.038 466.186 392.27 466.323 391.368C466.46 390.462 466.495 388.296 466.495 388.296C466.495 388.296 461.41 384.255 455.633 388.74Z" fill="white"/>
<path d="M464.027 375.228C463.963 375.228 463.895 375.214 463.831 375.186C460.79 373.851 458.177 375.159 458.15 375.173C457.894 375.303 457.583 375.192 457.46 374.925C457.336 374.655 457.441 374.332 457.698 374.2C457.821 374.138 460.762 372.664 464.229 374.187C464.49 374.302 464.616 374.618 464.507 374.896C464.42 375.102 464.229 375.228 464.027 375.228Z" fill="white"/>
<path d="M464.027 377.714C463.963 377.714 463.895 377.699 463.831 377.67C460.79 376.337 458.177 377.646 458.15 377.659C457.894 377.789 457.583 377.681 457.46 377.409C457.336 377.139 457.441 376.817 457.698 376.684C457.821 376.62 460.762 375.15 464.229 376.669C464.49 376.786 464.616 377.1 464.507 377.38C464.42 377.586 464.229 377.714 464.027 377.714Z" fill="white"/>
<path d="M464.027 380.197C463.963 380.197 463.895 380.185 463.831 380.155C460.79 378.822 458.177 380.128 458.15 380.144C457.894 380.272 457.583 380.163 457.46 379.894C457.336 379.624 457.441 379.299 457.698 379.167C457.821 379.105 460.762 377.632 464.229 379.155C464.49 379.27 464.616 379.589 464.507 379.865C464.42 380.073 464.229 380.197 464.027 380.197Z" fill="white"/>
<path d="M464.027 382.683C463.963 382.683 463.895 382.67 463.831 382.641C460.79 381.308 458.177 382.615 458.15 382.628C457.894 382.759 457.583 382.648 457.46 382.38C457.336 382.109 457.441 381.786 457.698 381.657C457.821 381.591 460.762 380.121 464.229 381.64C464.49 381.757 464.616 382.071 464.507 382.35C464.42 382.555 464.229 382.683 464.027 382.683Z" fill="white"/>
<path d="M464.027 385.166C463.963 385.166 463.895 385.154 463.831 385.124C460.79 383.795 458.177 385.099 458.15 385.113C457.894 385.241 457.583 385.132 457.46 384.861C457.336 384.595 457.441 384.272 457.698 384.138C457.821 384.074 460.762 382.604 464.229 384.126C464.49 384.242 464.616 384.557 464.507 384.834C464.42 385.039 464.229 385.166 464.027 385.166Z" fill="white"/>
<path d="M440.107 249.858C440.107 249.858 451.806 317.844 454.425 358.398C454.425 358.398 460.014 360.325 466.127 357.664C466.127 357.664 463.65 289.654 463.143 249.858H440.107Z" fill="#262C38"/>
<path d="M441.182 183.737C441.182 183.737 438.009 184.86 437.079 188.102C436.148 191.341 431.143 251.839 431.143 251.839C431.143 251.839 443.073 258.384 457.832 252.571L457.22 185.16L453.117 182.214L441.182 183.737Z" fill="white"/>
<path d="M457.557 222.178L457.571 223.583C457.449 223.583 457.317 223.588 457.196 223.588C447.474 223.588 439.754 222.027 433.861 220.047C433.902 219.574 433.946 219.099 433.986 218.626C439.858 220.632 447.655 222.22 457.557 222.178ZM457.63 230.323L457.618 228.921C447.359 228.972 439.356 227.272 433.412 225.166C433.371 225.644 433.327 226.117 433.287 226.592C439.252 228.665 447.156 230.329 457.196 230.329C457.338 230.33 457.488 230.325 457.63 230.323ZM434.573 212.085C434.532 212.553 434.49 213.022 434.448 213.493C440.265 215.381 447.794 216.844 457.197 216.844C457.302 216.844 457.408 216.84 457.512 216.839L457.498 215.436C447.955 215.469 440.359 213.992 434.573 212.085ZM435.175 205.531C435.133 205.998 435.088 206.47 435.043 206.948C440.776 208.741 448.115 210.104 457.196 210.104C457.279 210.104 457.366 210.1 457.449 210.1L457.435 208.696C448.244 208.721 440.871 207.341 435.175 205.531Z" fill="#A33657"/>
<path d="M453.27 182.653C453.27 182.653 455.765 184.431 454.425 189.262C453.085 194.092 447.206 204.983 445.927 209.264C444.646 213.548 444.879 215.624 445.287 223.517C445.694 231.408 449.132 258.627 449.594 261.688C450.06 264.747 450.468 265.481 452.74 265.114C455.009 264.747 461.879 260.586 463.8 259.116C465.72 257.652 466.478 257.04 466.243 255.143C466.012 253.247 463.099 244.257 463.099 241.381C463.099 238.504 469.036 207.184 470.143 201.924C471.25 196.665 470.202 194.157 467.99 191.524C465.779 188.896 452.764 181.21 452.764 181.21L453.27 182.653Z" fill="#697999"/>
<path d="M446.62 237.478C450.308 239.372 456.82 242.557 463.728 245.223C463.36 243.634 463.101 242.235 463.101 241.381C463.101 239.399 465.92 223.908 468.035 212.746H460.409V229.047L445.943 231.158C446.142 233.121 446.374 235.265 446.62 237.478Z" fill="#596782"/>
<path d="M440.915 184.084C440.915 184.084 437.354 185.437 437.486 190.209C437.618 194.981 438.053 208.928 438.098 211.404C438.141 213.882 437.837 221.037 437.137 226.313C436.44 231.59 432.378 258.477 432.029 260.035C431.681 261.594 430.807 261.686 429.497 261.549C428.19 261.414 426.748 259.944 426.529 259.759C426.31 259.575 425.611 259.346 425.919 256.73C426.224 254.114 429.015 236.866 429.104 233.606C429.191 230.35 428.623 201.356 428.797 196.035C428.972 190.713 429.104 189.291 429.671 188.787C430.239 188.279 440.715 183.651 440.715 183.651H440.913V184.084H440.915Z" fill="#697999"/>
<path d="M440.915 172.799C440.915 172.799 440.915 183.372 440.915 184.084C440.915 184.795 439.733 185.644 439.716 186.975C439.691 188.306 440.362 192.503 443.032 192.503C447.792 192.503 453.838 186.239 453.423 183.465C453.006 180.689 452.201 181.287 452.201 178.348C452.201 175.414 452.201 172.797 452.201 172.797L440.915 172.799Z" fill="url(#paint11_linear_2345_1145)"/>
<path d="M440.915 172.799C440.915 172.799 440.915 183.372 440.915 184.084C440.915 184.607 440.284 185.204 439.936 186.011C440.393 186.621 441.261 187.147 442.858 187.286C447.307 187.664 450.656 183.527 452.479 180.538C452.314 180.065 452.201 179.46 452.201 178.35C452.201 175.415 452.201 172.799 452.201 172.799H440.915Z" fill="#FBE0D5"/>
<path d="M435.216 157.592C432.99 162.729 433.888 169 434.604 173.005C435.128 175.941 438.489 181.999 438.97 182.894C439.452 183.788 442.552 183.949 443.576 183.489C444.604 183.031 450.364 178.489 451.042 177.205C451.719 175.919 452.505 173.399 452.505 173.399C452.505 173.399 456.304 169.384 456.606 163.144C456.916 156.903 453.423 151.352 446.525 150.939C440.769 150.594 437.088 153.269 435.216 157.592Z" fill="url(#paint12_linear_2345_1145)"/>
<path d="M451.778 170.667H450.79C450.79 170.667 450.501 167.148 450.324 166.997C450.148 166.843 447.265 165.315 447.239 165.068C447.209 164.825 446.714 162.225 446.714 162.225C446.714 162.225 445.492 164.336 443.569 165.435C443.452 165.129 443.569 162.501 443.569 162.501C443.569 162.501 442.027 164.062 438.652 165.008C435.274 165.956 432.771 166.568 432.771 166.045C432.771 165.527 433.296 163.936 433.296 163.936C433.296 163.936 430.851 164.334 430.673 164.181C430.499 164.029 431.259 159.838 432.625 157.482C431.459 157.455 430.124 156.597 430.268 156.226C430.414 155.861 432.976 152.619 436.961 150.753C435.83 150.141 435.772 149.011 436.059 148.919C436.353 148.828 444.879 146.502 449.132 147.694C453.377 148.888 453.35 151.213 453.35 151.213C453.35 151.213 458.422 153.273 458.966 159.807C459.752 169.234 454.905 174.296 452.225 179.17L452.209 174.296L454.1 167.685L451.778 170.667Z" fill="#262C38"/>
<path d="M451.655 169.955C451.655 169.955 452.121 167.532 452.703 166.719C453.511 165.594 455.918 165.249 456.035 166.719C456.153 168.189 454.582 172.316 454.274 172.983C453.967 173.648 452.211 174.296 452.211 174.296C452.211 174.296 451.219 174.015 451.655 169.955Z" fill="url(#paint13_linear_2345_1145)"/>
<path d="M442.879 224.865C441.459 224.014 439.156 219.729 438.716 219.293C438.291 218.855 433.901 219.118 433.066 219.293C432.227 219.468 431.15 221.311 431.106 222.365C431.063 223.416 431.608 226.839 431.773 227.582C431.942 228.331 433.447 228.634 434.031 229.074C434.613 229.514 435.279 230.829 435.576 230.347C435.866 229.863 435.778 228.897 435.778 228.897C435.778 228.897 436.991 230.115 438.411 230.453C439.832 230.787 440.708 230.347 442.17 230.829C443.636 231.311 457.7 236.486 462.253 237.938C466.801 239.383 469.641 239.207 472.898 238.552C476.153 237.893 477.444 236.972 478.198 236.662C478.953 236.353 480.325 235.522 479.907 233.546C479.493 231.578 477.114 222.1 477.114 222.1L466.551 226.086L467.22 227.799C467.22 227.799 464.549 227.054 460.711 227.098C456.865 227.145 447.263 227.496 442.879 224.865Z" fill="#F5B7A9"/>
<path d="M438.878 219.499C438.878 219.499 436.845 217.996 436.313 217.684C435.776 217.374 432.948 216.893 431.806 216.585C430.659 216.274 429.328 215.861 428.861 215.662C428.395 215.465 428.028 216.221 428.861 217.061C429.691 217.901 430.944 218.084 431.521 218.276C432.105 218.475 433.106 219.329 434.246 219.612C435.388 219.89 438.878 219.499 438.878 219.499Z" fill="#F5B7A9"/>
<path d="M470.117 195.069C470.117 195.069 476.822 218.95 477.844 222.649C478.86 226.349 480.812 233.168 480.581 234.07C480.346 234.976 479.724 236.97 477.529 237.735C468.117 241.021 465.204 239.039 449.808 236.737V226.251L465.64 226.592C465.64 226.592 461.066 215.189 460.478 213.093C459.889 210.997 460.718 202.675 462.213 197.93C463.708 193.184 469.076 192.753 470.117 195.069Z" fill="#697999"/>
<path d="M501.078 182.36C498.469 188.655 494.898 196.458 504.479 199.914L506.293 201.581C506.293 201.581 496.599 213.376 506.293 222.134C515.987 230.893 527.082 226.126 529.979 221.778C532.885 217.43 534.359 214.391 532.202 205.215C530.049 196.04 528.789 193.94 528.794 187.395L501.078 182.36Z" fill="#262C38"/>
<path d="M489.5 236.788C489.5 236.788 465.049 232.843 463.475 232.485C461.895 232.129 461.466 229.032 459.962 227.801C458.469 226.568 456.704 226.081 456.158 225.655C455.605 225.23 455.213 224.731 454.74 225.084C454.269 225.44 454.462 226.526 455.479 227.233C456.488 227.945 457.267 228.683 457.371 228.99C457.474 229.291 456.596 229.388 456.069 229.22C455.545 229.054 453.576 228.597 452.927 228.245C452.274 227.894 450.592 226.194 449.533 225.619C448.478 225.045 447.418 224.956 447.069 225.095C446.723 225.243 447.074 226.252 447.681 226.746C448.285 227.233 449.067 227.852 449.326 228.902C449.58 229.95 450.821 234.443 451.553 235.416C452.283 236.388 452.74 236.874 453.341 236.923C453.947 236.974 460.97 237.849 461.836 237.971C462.498 238.066 476.907 242.54 483.746 244.655C486.947 245.646 490.503 245.612 490.503 245.612L497.924 238.974L496.881 231.908L489.5 236.788Z" fill="url(#paint14_linear_2345_1145)"/>
<path d="M505.576 229.803C505.576 229.803 495.463 246.412 491.033 246.404C489.05 246.402 480.192 244.62 480.192 244.62C480.192 244.62 480.303 240.356 482.06 235.137L488.954 235.697C488.954 235.697 491.415 231.793 501.545 213.265C507.013 212.16 505.953 227.62 505.576 229.803Z" fill="#596782"/>
<path d="M510.131 200.744C510.131 200.744 510.428 204.751 509.646 206.913C508.867 209.072 504.724 211.106 504.635 211.106C504.552 211.106 500.47 220.418 500.47 220.418C500.47 220.418 502.065 225.222 510.791 226.683C519.517 228.144 527.506 219.932 527.506 219.932L528.148 212.947C528.148 212.947 520.082 207.684 520.217 203.664C520.346 199.65 521.236 193.889 521.236 193.889H510.131V200.744Z" fill="url(#paint15_linear_2345_1145)"/>
<path d="M520.311 201.86C520.584 198.12 521.234 193.887 521.234 193.887H510.129V200.743C510.129 200.743 510.426 204.749 509.644 206.911C509.488 207.348 509.182 207.783 508.806 208.195C510.518 211.849 516.551 208.858 520.311 201.86Z" fill="#FBE0D5"/>
<path d="M518.655 259.54H498.367C498.367 259.54 494.867 273.099 495.722 292.373C496.577 311.655 499.609 336.734 501.243 345.715C502.174 350.874 504.038 360.531 505.466 369.489C506.528 376.134 507.352 382.396 507.383 386.152C507.463 394.969 507.621 394.564 505.828 398.569C504.041 402.568 499.842 407.144 499.842 407.144L503.106 409.429C503.106 409.429 506.841 408.205 510.181 406.896C513.525 405.59 516.325 402.404 516.325 402.404C516.325 402.404 514.303 397.257 514.225 391.624C514.175 388.132 514.726 378.725 515.186 370.281C515.469 365.084 515.721 360.259 515.777 357.399C515.935 349.883 513.525 343.918 513.525 338.201C513.525 332.483 517.722 313.452 518.657 307.326V259.54H518.655Z" fill="url(#paint16_linear_2345_1145)"/>
<path d="M501.243 345.714C502.174 350.873 504.038 360.529 505.466 369.487C506.528 376.132 507.352 382.394 507.383 386.151C507.388 386.657 507.392 387.128 507.399 387.577C509.173 387.723 512.946 387.887 515.793 387.705C515.958 383.192 516.323 360.898 516.377 358.04C516.537 350.524 514.375 343.939 514.375 338.219C514.375 332.501 517.724 313.451 518.659 307.324V259.538H498.37C498.37 259.538 494.87 273.098 495.725 292.371C496.577 311.655 499.609 336.734 501.243 345.714Z" fill="#1A1E26"/>
<path d="M492.807 414.332V415.227C492.807 415.227 494.362 416.409 497.397 416.409C500.424 416.409 504.547 415.556 507.035 413.554C509.52 411.553 511.171 409.957 511.443 409.94C511.714 409.918 511.809 410.696 512.103 411.04C512.397 411.388 512.824 411.346 513.328 411.166C513.832 410.978 517.004 409.469 517.447 409.224C517.899 408.976 518.109 408.448 517.993 407.973C517.878 407.506 517.782 405.22 517.782 405.22L492.807 414.332Z" fill="#1E202B"/>
<path d="M515.781 400.806C515.781 400.806 509.58 406.202 507.121 407.183C504.66 408.158 504.194 407.711 503.77 407.464C503.339 407.223 501.629 405.795 500.986 405.815C500.348 405.835 496.113 410.121 494.632 411.06C493.151 412 492.729 412.901 492.805 414.33C494.206 415.472 498.912 416.328 503.725 414.33C508.546 412.325 509.865 410.083 512.122 408.488C514.376 406.894 517.821 405.892 517.899 405.484C517.981 405.072 517.258 402.321 515.781 400.806Z" fill="#3D4659"/>
<path d="M531.366 396.868C531.394 393.185 532.044 386.244 532.623 379.741C533.052 374.892 533.452 370.288 533.525 367.463C533.698 360.847 531.248 348.842 530.9 342.408C530.548 335.975 535.603 304.873 535.445 294.663C535.289 284.451 534.899 272.121 527.36 259.54H506.451L505.829 266.443C505.829 266.443 506.184 281.633 508.627 294.619C511.078 307.607 518.189 337.26 518.659 347.061C519.123 356.861 519.043 361.236 521.069 372.263C521.523 374.737 522.014 377.131 522.511 379.492C524.211 387.655 525.879 395.369 525.657 404.159C525.36 415.49 524.255 419.044 524.604 421.376H534.979C534.979 421.376 534.809 418.247 534.284 415.616C533.752 412.981 531.307 403.302 531.366 396.868Z" fill="url(#paint17_linear_2345_1145)"/>
<path d="M518.024 346.873C518.49 356.671 522.558 388.165 523.163 392.827C525.03 392.867 529.06 393.36 531.516 393.209C531.745 389.436 532.202 384.478 532.623 379.741C533.052 374.892 533.452 370.289 533.525 367.463C533.698 360.847 532.527 349.098 532.178 342.662C531.825 336.229 535.603 304.871 535.445 294.663C535.289 284.451 534.899 272.121 527.36 259.54H506.451L505.143 265.565C505.143 265.565 505.671 281.12 508.115 294.106C510.563 307.094 517.557 337.07 518.024 346.873Z" fill="#262C38"/>
<path d="M529.585 419.708C526.903 419.708 524.776 421.305 524.545 421.732C524.31 422.163 523.893 423.54 524.545 425.589C525.676 429.174 528.073 432.112 530.282 432.048C532.503 431.988 534.512 428.257 535.184 424.851C535.664 422.409 535.203 421.332 534.889 421.089C534.569 420.844 532.908 419.708 529.585 419.708Z" fill="#1E202B"/>
<path d="M529.585 418.773C526.903 418.773 524.776 420.362 524.545 420.795C524.31 421.219 523.893 422.596 524.545 424.648C525.676 428.229 528.073 431.179 530.282 431.111C532.503 431.054 534.512 427.316 535.184 423.918C535.664 421.467 535.203 420.393 534.889 420.149C534.569 419.897 532.908 418.773 529.585 418.773Z" fill="#3D4659"/>
<path d="M528.843 262.184C528.843 262.184 527.044 263.505 524.783 264.505C521.488 265.968 515.963 267.53 508.747 266.383C503.057 265.477 500.346 263.479 499.138 262.181C498.478 261.468 498.089 260.753 498.089 260.753L498.269 259.761C498.269 259.761 499.95 263.779 508.747 265.177C520.911 267.111 528.302 261.178 528.302 261.178L528.843 262.184Z" fill="#A66B51"/>
<path d="M505.414 210.719C504.811 213.584 504.06 220.458 513.497 220.155C522.935 219.848 527.504 212.489 527.504 212.489C527.504 212.489 527.828 212.364 528.49 212.823C529.155 213.279 532.949 216.411 534.251 217.779C535.553 219.149 536.02 220.244 535.73 223.199C535.44 226.148 527.219 256.6 527.219 257.391C527.219 258.178 528.3 261.178 528.3 261.178C528.3 261.178 520.909 267.111 508.745 265.177C499.946 263.777 498.268 259.761 498.268 259.761C498.268 259.761 498.268 247.593 497.574 243.274C496.875 238.957 493.747 236.273 495.306 229.699C496.151 226.134 500.711 215.796 501.351 214.423C501.99 213.057 502.623 212.629 503.231 212.085C503.822 211.557 505.414 210.719 505.414 210.719Z" fill="white"/>
<path d="M522.807 208.517C522.807 208.517 515.584 225.822 514.602 239.319C513.627 252.82 513.898 266.33 514.279 271.286C514.656 276.244 521.003 280.862 525.885 278.295C530.766 275.731 533.478 269.977 533.045 268.264C532.605 266.554 528.271 259.259 528.271 258.631C528.271 258.004 536.031 225.403 536.187 222.67C536.354 219.93 535.65 218.278 533.856 216.627C532.07 214.976 522.807 208.517 522.807 208.517Z" fill="#697999"/>
<path d="M530.149 236.185C530.149 236.185 529.145 241.684 529.967 251.03C530.718 247.778 531.623 243.844 532.515 239.942L530.149 236.185Z" fill="#596782"/>
<path d="M514.929 236.185C514.929 236.185 522.722 225.633 523.662 223.924C524.6 222.215 524.858 221.037 524.858 219.289C524.858 217.542 524.732 209.868 524.732 209.868L521.636 207.134C521.636 207.134 517.444 217.821 514.929 236.185Z" fill="#889DC7"/>
<path d="M507.68 209.233C507.68 209.233 503.664 221.114 503.012 235.323C502.362 249.534 502.506 264.047 501.802 267.524C501.099 271.005 496.787 273.952 496.203 273.333C495.619 272.712 497.357 262.34 497.55 259.262C497.734 256.184 497.843 246.413 497.19 243.775C496.54 241.138 493.721 236.044 494.585 231.55C495.456 227.061 501.019 214.465 501.37 213.579C501.721 212.697 503.243 211.842 503.737 211.298C504.242 210.759 507.68 209.233 507.68 209.233Z" fill="#697999"/>
<path d="M508.806 208.197C508.806 208.197 503.492 222.929 503.078 234.089C503.078 234.089 501.639 221.273 501.557 219.819C501.479 218.367 501.747 217.37 502.291 216.4C502.833 215.431 506.027 210.001 506.027 210.001L508.806 208.197Z" fill="#889DC7"/>
<path d="M502.261 190.363C502.108 193.368 501.688 195.169 502.696 197.906C503.711 200.644 505.794 202.507 506.392 203.277C506.99 204.048 507.531 204.576 508.226 204.576C508.921 204.576 517.763 202.813 521.038 195.227C524.244 193.522 527.374 185.452 524.708 178.92C522.046 172.389 515.426 170.704 508.808 174.245C504.201 176.712 504.19 180.211 503.304 183.009C502.091 186.858 502.173 188.321 502.261 190.363Z" fill="url(#paint18_linear_2345_1145)"/>
<path d="M520.25 190.421C520.25 190.421 521.156 186.993 522.68 187.258C524.208 187.521 525.056 190.058 523.78 192.775C522.635 195.224 520.984 195.512 520.674 195.171C520.365 194.82 520.115 191.557 520.25 190.421Z" fill="url(#paint19_linear_2345_1145)"/>
<path d="M522.678 173.717C520.296 171.336 516.481 169.351 511.191 170.7C506.738 171.836 504.112 174.913 502.604 178.177C502.348 178.62 502.154 179.06 502.046 179.488C502.039 179.513 502.034 179.546 502.028 179.572C501.971 179.725 501.903 179.879 501.849 180.032C501.583 180.819 501.319 181.588 501.079 182.357C500.833 183.147 501.128 183.321 501.771 183.195C501.823 186.133 502.246 189.303 502.246 189.303C502.246 189.303 503.692 186.409 504.317 184.481C504.943 182.55 505.986 181.895 506.82 182.813C507.445 182.024 509.03 181.937 510.117 184.393C511.203 186.847 518.212 196.17 526.726 193.703C526.726 193.703 527.186 191.997 527.53 189.727C528.716 189.079 528.837 188.418 528.797 187.391C528.73 185.675 529.823 176.46 522.678 173.717Z" fill="#262C38"/>
<path d="M517.084 185.361C517.084 185.361 520.089 201.15 516.168 213.206C516.168 213.206 523.413 202.737 523.638 188.504L517.084 185.361Z" fill="#262C38"/>
<path d="M534.107 257.146C534.107 257.146 531.408 280.585 531.144 282.258C530.879 283.932 527.96 284.529 526.86 286.166C525.76 287.796 525.382 289.67 525.002 290.267C524.623 290.864 524.169 291.303 524.529 291.781C524.892 292.26 525.918 292.002 526.538 290.906C527.166 289.811 527.828 288.956 528.109 288.837C528.393 288.711 528.528 289.632 528.393 290.189C528.262 290.748 527.927 292.838 527.619 293.536C527.318 294.23 525.78 296.085 525.287 297.221C524.793 298.357 524.755 299.471 524.908 299.833C525.061 300.191 526.008 299.772 526.446 299.111C526.881 298.458 527.43 297.599 528.417 297.28C529.399 296.962 533.61 295.446 534.501 294.632C535.391 293.816 535.831 293.315 535.845 292.678C535.869 292.039 536.359 284.632 536.436 283.711C536.493 283.014 540.05 267.676 541.734 260.396C542.525 256.987 542.322 253.258 542.322 253.258L540.236 241.099L532.126 245.944L534.107 257.146Z" fill="url(#paint20_linear_2345_1145)"/>
<path d="M534.44 281.08L531.22 280.546L530.977 282.161L533.893 283.359L534.44 281.08Z" fill="#82263D"/>
<path d="M537.882 283.466C537.51 284.864 536.31 285.733 535.202 285.404C534.093 285.081 533.5 283.677 533.876 282.279C534.248 280.882 535.447 280.015 536.556 280.34C537.666 280.671 538.26 282.069 537.882 283.466Z" fill="#DB7691"/>
<path d="M537.711 283.417C537.391 284.61 536.425 285.368 535.551 285.11C534.672 284.851 534.222 283.673 534.543 282.479C534.863 281.288 535.831 280.53 536.707 280.789C537.579 281.045 538.031 282.227 537.711 283.417Z" fill="white"/>
<path d="M534.898 281.26L533.382 280.904L533.766 280.486L535.876 280.629L534.898 281.26Z" fill="#DB7691"/>
<path d="M534.029 283.393L532.819 282.919L532.868 283.359L534.44 284.65L534.029 283.393Z" fill="#DB7691"/>
<path d="M535.513 218.705C535.513 218.705 540.615 234.317 542.777 254.135C543.001 256.205 541.875 264.129 541.875 264.129C541.875 264.129 537.817 264.217 532.77 262.623L533.184 257.279C533.184 257.279 530.775 245.159 530.149 242.416C528.834 236.731 532.183 214.039 535.513 218.705Z" fill="#697999"/>
<path d="M636.172 526.786L278.132 309.574C268.125 303.502 251.96 303.509 242.028 309.574L52.4779 425.32C42.5457 431.385 42.5996 441.219 52.61 447.289L410.649 664.502C420.644 670.565 436.801 670.565 446.732 664.502L636.28 548.754C646.211 542.692 646.169 532.853 636.172 526.786Z" fill="url(#paint21_linear_2345_1145)"/>
<path d="M405.767 426.343C408.4 424.734 412.681 424.725 415.35 426.343C418 427.952 418.016 430.567 415.381 432.174C412.745 433.785 408.451 433.785 405.799 432.174C403.133 430.554 403.133 427.952 405.767 426.343Z" fill="#FFC60B"/>
<path d="M386.748 414.803C389.382 413.193 393.678 413.193 396.33 414.803C398.984 416.412 398.998 419.029 396.365 420.636C393.727 422.247 389.434 422.247 386.779 420.636C384.127 419.029 384.113 416.412 386.748 414.803Z" fill="#0EC2FF"/>
<path d="M424.785 437.881C427.422 436.272 431.7 436.261 434.368 437.881C437.022 439.49 437.036 442.105 434.399 443.712C431.763 445.319 427.47 445.321 424.815 443.712C422.149 442.094 422.151 439.49 424.785 437.881Z" fill="#0EC2FF"/>
<path d="M443.803 449.415C446.438 447.806 450.718 447.797 453.386 449.415C456.04 451.027 456.052 453.641 453.417 455.25C450.783 456.858 446.49 456.858 443.836 455.25C441.167 453.632 441.167 451.027 443.803 449.415Z" fill="#FFC60B"/>
<path d="M52.4779 438.124L242.027 322.379C251.96 316.314 268.125 316.307 278.13 322.379L636.172 539.59C638.439 540.965 640.166 542.539 641.409 544.214C645.665 538.483 643.937 531.5 636.172 526.786L278.132 309.574C268.125 303.502 251.96 303.509 242.028 309.574L52.4779 425.32C44.7998 430.008 43.1175 436.946 47.3632 442.656C48.5832 441.018 50.2707 439.475 52.4779 438.124Z" fill="url(#paint22_linear_2345_1145)"/>
<path d="M525.961 532.539L431.023 590.513L439.323 595.547L534.262 537.574L525.961 532.539Z" fill="url(#paint23_linear_2345_1145)"/>
<path d="M510.473 523.141L502.161 518.099L456.377 546.054L464.691 551.098L510.473 523.141Z" fill="url(#paint24_linear_2345_1145)"/>
<path d="M503.97 574.928L512.28 579.97L558.062 552.013L549.752 546.971L503.97 574.928Z" fill="url(#paint25_linear_2345_1145)"/>
<path d="M416.88 551.319L486.671 508.702L478.36 503.66L408.569 546.277L416.88 551.319Z" fill="url(#paint26_linear_2345_1145)"/>
<path d="M454.57 489.227L441.066 497.474L449.377 502.516L462.882 494.269L454.57 489.227Z" fill="url(#paint27_linear_2345_1145)"/>
<path d="M404.033 539.836L407.274 540.368L406.402 538.388L407.361 537.804C408.197 537.292 408.185 536.465 407.338 535.952L387.133 523.693C386.29 523.182 384.94 523.182 384.104 523.693L379.815 526.312C378.977 526.823 378.97 527.652 379.813 528.165L400.02 540.423C400.863 540.934 402.232 540.934 403.072 540.423L404.033 539.836Z" fill="url(#paint28_linear_2345_1145)"/>
<path d="M406.968 460.348L312.03 518.322L320.342 523.364L415.279 465.389L406.968 460.348Z" fill="url(#paint29_linear_2345_1145)"/>
<path d="M359.377 431.476L281.33 479.138L289.64 484.18L367.69 436.518L359.377 431.476Z" fill="url(#paint30_linear_2345_1145)"/>
<path d="M293.234 453.011L343.889 422.081L335.587 417.044L284.934 447.976L293.234 453.011Z" fill="url(#paint31_linear_2345_1145)"/>
<path d="M391.489 450.958L383.18 445.916L323.519 482.348L331.828 487.389L391.489 450.958Z" fill="url(#paint32_linear_2345_1145)"/>
<path d="M388.371 500.678L396.683 505.722L439.08 479.83L430.771 474.788L388.371 500.678Z" fill="url(#paint33_linear_2345_1145)"/>
<path d="M290.589 415.552L298.898 420.591L320.097 407.647L311.788 402.605L290.589 415.552Z" fill="url(#paint34_linear_2345_1145)"/>
<path d="M264.195 373.733L202.275 411.546L210.586 416.588L272.51 378.775L264.195 373.733Z" fill="url(#paint35_linear_2345_1145)"/>
<path d="M254.43 408.656L262.739 413.699L296.296 393.207L287.987 388.165L254.43 408.656Z" fill="url(#paint36_linear_2345_1145)"/>
<path d="M240.396 359.293L141.701 419.562L150.011 424.606L248.707 364.337L240.396 359.293Z" fill="url(#paint37_linear_2345_1145)"/>
<path d="M278.717 470.683L258.525 458.431C257.682 457.919 256.321 457.912 255.473 458.431L251.194 461.044C250.358 461.555 250.36 462.388 251.205 462.901L271.399 475.153C272.242 475.664 273.612 475.664 274.451 475.153L275.41 474.569L278.653 475.1L277.781 473.121L278.728 472.543C279.576 472.021 279.562 471.194 278.717 470.683Z" fill="url(#paint38_linear_2345_1145)"/>
<path d="M233.184 346.691L231.309 347.836L576.929 557.514L578.802 556.369L233.184 346.691Z" fill="url(#paint39_linear_2345_1145)"/>
<path d="M430.088 581.035L409.883 568.776C409.04 568.264 407.669 568.264 406.829 568.776L402.552 571.389C401.704 571.906 401.718 572.735 402.563 573.248L422.768 585.505C423.61 586.017 424.963 586.017 425.811 585.5L426.758 584.921L430.013 585.445L429.127 583.473L430.088 582.888C430.927 582.373 430.934 581.546 430.088 581.035Z" fill="url(#paint40_linear_2345_1145)"/>
<path opacity="0.1" d="M278.132 309.574C268.125 303.502 251.96 303.509 242.028 309.574L52.4778 425.32C46.628 428.892 44.2714 433.77 45.3437 438.418H490.511L278.132 309.574Z" fill="white"/>
<path opacity="0.1" d="M296.089 595.003L410.649 664.504C420.644 670.567 436.801 670.567 446.732 664.504L560.544 595.003H296.089Z" fill="white"/>
<path d="M626.969 284.571V446.491L587.883 470.358V308.438L626.969 284.571Z" fill="url(#paint41_linear_2345_1145)"/>
<path d="M587.883 308.438V470.358L548.559 446.5V284.582L587.883 308.438Z" fill="url(#paint42_linear_2345_1145)"/>
<path d="M626.969 284.571L587.883 308.438L548.559 284.582L587.645 260.714L626.969 284.571Z" fill="url(#paint43_linear_2345_1145)"/>
<path d="M594.176 274.509L568.222 284.528L572.548 287.152L577.219 285.329L584.675 289.853L581.696 292.703L586.022 295.326L602.386 279.491L594.176 274.509ZM581.766 283.54L593.98 278.708L595.486 279.623L587.596 287.079L581.766 283.54Z" fill="url(#paint44_linear_2345_1145)"/>
<path opacity="0.5" d="M548.559 284.582V285.751L587.883 309.608L626.969 285.742V284.571L587.883 308.438L548.559 284.582Z" fill="white"/>
<path d="M687.198 392.65V483.029L648.114 506.896V416.516L687.198 392.65Z" fill="url(#paint45_linear_2345_1145)"/>
<path d="M648.114 416.516V506.896L608.79 483.04V392.659L648.114 416.516Z" fill="url(#paint46_linear_2345_1145)"/>
<path d="M687.198 392.65L648.114 416.516L608.79 392.659L647.874 368.791L687.198 392.65Z" fill="url(#paint47_linear_2345_1145)"/>
<path d="M653.699 396.379C656.444 396.765 658.322 396.419 660.719 394.958C664.763 392.486 663.965 390.112 659.674 387.508L651.305 382.429L630.139 395.353L638.637 400.508C642.893 403.09 647.392 403.591 651.633 401.001C654.365 399.33 654.737 397.961 653.699 396.379ZM647.467 398.207C645.373 399.486 643.872 399.219 642.085 398.136L638.131 395.738L643.305 392.579L647.257 394.979C648.983 396.023 649.207 397.143 647.467 398.207ZM650.778 392.712L646.918 390.371L651.963 387.288L655.788 389.61C657.422 390.601 657.519 391.571 655.771 392.639C654.09 393.667 652.471 393.739 650.778 392.712Z" fill="url(#paint48_linear_2345_1145)"/>
<path opacity="0.5" d="M608.79 392.659V393.83L648.114 417.685L687.198 393.819V392.65L648.114 416.516L608.79 392.659Z" fill="white"/>
<path d="M220.699 228.104V303.093L68.053 396.306L68.0513 321.318L220.699 228.104Z" fill="url(#paint49_linear_2345_1145)"/>
<path d="M68.0514 321.318L68.0532 396.306L45.2935 382.502L45.2917 307.512L68.0514 321.318Z" fill="url(#paint50_linear_2345_1145)"/>
<path opacity="0.3" d="M68.0514 321.318L45.2917 307.512V309.566L68.0514 323.372L220.699 230.159V228.104L68.0514 321.318Z" fill="white"/>
<path d="M220.699 228.104L68.0514 321.318L45.2917 307.512L197.939 214.297L220.699 228.104Z" fill="url(#paint51_linear_2345_1145)"/>
<path opacity="0.5" d="M203.966 264.913C203.961 262.931 202.628 262.131 200.988 263.127L87.6638 331.875C86.0249 332.87 84.6989 335.281 84.7041 337.264L84.7841 366.539C84.7893 368.519 86.124 369.328 87.7628 368.333L201.085 299.585C202.726 298.589 204.052 296.168 204.046 294.186L203.966 264.913Z" fill="white"/>
<path d="M203.966 264.381C203.961 262.4 202.628 261.6 200.988 262.597L87.6638 331.345C86.0249 332.341 84.6989 334.751 84.7041 336.734L84.7841 366.008C84.7893 367.989 86.124 368.798 87.7628 367.803L201.085 299.053C202.726 298.058 204.052 295.636 204.046 293.655L203.966 264.381Z" fill="url(#paint52_linear_2345_1145)"/>
<path d="M129.891 311.811C130.957 311.164 131.27 311.74 131.273 313.266L131.28 315.839L130.225 316.479L130.218 313.946C130.216 313.222 130.136 312.801 129.671 313.084C129.36 313.272 128.96 313.681 128.939 313.703C128.941 313.737 128.974 314.406 128.976 314.767L128.982 317.233L127.928 317.872L127.921 315.434C127.919 314.576 127.851 314.188 127.363 314.484C127.019 314.692 126.681 315.063 126.664 315.083L126.673 318.633L125.618 319.273L125.606 314.515L126.661 313.876V314.145C126.687 314.11 127.192 313.447 127.58 313.211C128.023 312.943 128.324 312.908 128.569 313.054C128.609 313.011 129.292 312.174 129.891 311.811Z" fill="white"/>
<path d="M133.809 309.435C135.173 308.608 135.62 309.356 135.625 310.816C135.628 312.276 135.187 313.577 133.823 314.406C132.458 315.233 132.012 314.472 132.007 313.011C132.003 311.55 132.445 310.262 133.809 309.435ZM133.819 313.334C134.407 312.978 134.561 312.388 134.56 311.462C134.558 310.538 134.4 310.164 133.812 310.52C133.235 310.87 133.07 311.44 133.072 312.364C133.074 313.288 133.242 313.684 133.819 313.334Z" fill="white"/>
<path d="M138.412 306.641C139.511 305.974 139.801 306.63 139.806 308.091L139.813 310.664L138.758 311.303L138.751 308.77C138.75 308.047 138.67 307.625 138.16 307.934C137.794 308.157 137.457 308.525 137.439 308.546L137.448 312.096L136.393 312.735L136.381 307.978L137.436 307.338V307.607C137.465 307.574 137.969 306.909 138.412 306.641Z" fill="white"/>
<path d="M140.727 303.452L141.782 302.813L141.786 304.099L140.731 304.738L140.727 303.452Z" fill="white"/>
<path d="M140.745 310.098L140.733 305.341L141.787 304.702L141.8 309.459L140.745 310.098Z" fill="white"/>
<path d="M143.968 302.063L143.972 303.376L144.936 302.789L144.94 303.874L143.975 304.46L143.981 306.416C143.982 306.886 143.982 307.099 144.316 306.898C144.538 306.763 144.896 306.533 144.916 306.522L144.963 307.514C144.936 307.538 144.431 307.97 144.165 308.133C143.211 308.712 142.933 308.451 142.929 307.085L142.924 305.101L142.458 305.384L142.455 304.3L142.92 304.017L142.917 302.704L143.968 302.063Z" fill="white"/>
<path d="M147.224 301.296C148.6 300.461 149.035 301.217 149.04 302.676C149.043 304.137 148.614 305.43 147.238 306.267C145.873 307.094 145.427 306.332 145.421 304.871C145.418 303.41 145.859 302.123 147.224 301.296ZM147.234 305.195C147.821 304.838 147.976 304.249 147.974 303.323C147.973 302.399 147.814 302.024 147.227 302.38C146.65 302.731 146.495 303.294 146.499 304.218C146.501 305.143 146.657 305.545 147.234 305.195Z" fill="white"/>
<path d="M152.105 298.334L152.109 299.619C151.421 300.198 150.894 300.733 150.868 300.762L150.877 303.951L149.822 304.59L149.81 299.833L150.852 299.199L150.854 299.709C150.885 299.667 151.508 298.845 152.105 298.334Z" fill="white"/>
<path d="M152.74 302.821L152.728 298.063L153.781 297.424L153.795 302.181L152.74 302.821Z" fill="white"/>
<path d="M152.723 296.175L153.776 295.536L153.779 296.821L152.726 297.461L152.723 296.175Z" fill="white"/>
<path d="M156.787 295.492C157.886 294.826 158.176 295.481 158.181 296.942L158.188 299.515L157.133 300.154L157.126 297.621C157.124 296.898 157.034 296.484 156.523 296.792C156.156 297.015 155.831 297.379 155.814 297.397L155.823 300.947L154.768 301.586L154.756 296.829L155.798 296.195V296.464C155.828 296.433 156.334 295.768 156.787 295.492Z" fill="white"/>
<path d="M162.669 292.019L162.672 293.038L162.085 293.341C162.152 293.434 162.251 293.602 162.253 293.883C162.257 295.209 161.681 295.908 160.604 296.56L160.282 296.716L160.194 297.132C160.194 297.386 160.295 297.38 160.96 296.99C162.304 296.175 162.681 296.308 162.684 297.38C162.688 298.533 161.834 299.493 160.825 300.105C159.671 300.804 158.927 301.002 158.923 299.93C158.922 299.5 159.088 299.079 159.486 298.461C159.309 298.421 159.196 298.208 159.196 297.914C159.196 297.673 159.479 297.004 159.493 296.968C159.226 296.902 158.96 296.701 158.956 295.885C158.953 294.652 159.685 293.752 160.606 293.193C160.95 292.985 161.382 292.85 161.405 292.842L162.669 292.019ZM160.623 295.569C161.045 295.313 161.221 294.952 161.221 294.508C161.219 294.053 161.042 293.918 160.62 294.175C160.187 294.438 160.01 294.787 160.011 295.242C160.011 295.684 160.19 295.832 160.623 295.569ZM160.873 298.14C160.663 298.268 160.199 298.485 160.175 298.498C160.043 298.739 159.964 298.934 159.966 299.163C159.966 299.444 160.234 299.416 160.821 299.06C161.343 298.744 161.619 298.441 161.619 298.093C161.617 297.729 161.462 297.797 160.873 298.14Z" fill="white"/>
<path d="M204.006 276.449C200.046 278.852 198.082 282.89 196.189 286.79C194.349 290.57 192.618 294.124 189.121 296.246C185.623 298.368 183.885 296.92 182.034 295.379C180.126 293.785 178.148 292.137 174.187 294.541C170.227 296.942 168.261 300.983 166.368 304.882C164.53 308.661 162.795 312.216 159.309 314.331C155.811 316.453 154.066 315.01 152.222 313.463C150.307 311.875 148.327 310.227 144.366 312.631C140.406 315.032 138.451 319.066 136.548 322.972C134.718 326.747 132.985 330.303 129.488 332.423C125.99 334.545 124.243 333.1 122.399 331.555C120.484 329.967 118.506 328.319 114.553 330.717C110.592 333.12 108.63 337.16 106.727 341.064C104.897 344.837 103.164 348.395 99.6761 350.509C96.1777 352.631 94.4311 351.187 92.5889 349.642C90.6702 348.053 88.6942 346.404 84.7405 348.804L84.744 350.009C88.2319 347.894 89.9785 349.335 91.8225 350.884C93.7394 352.471 95.7171 354.109 99.6778 351.704C103.63 349.306 105.594 345.279 107.495 341.373C109.325 337.598 111.058 334.044 114.556 331.922C118.044 329.806 119.791 331.25 121.643 332.792C123.551 334.384 125.529 336.022 129.492 333.619C133.451 331.218 135.414 327.189 137.309 323.288C139.139 319.514 140.87 315.96 144.368 313.838C147.867 311.716 149.611 313.158 151.455 314.705C153.371 316.294 155.35 317.93 159.311 315.527C163.261 313.129 165.225 309.103 167.128 305.196C168.958 301.422 170.689 297.868 174.187 295.748C177.686 293.626 179.431 295.068 181.276 296.615C183.193 298.204 185.169 299.842 189.121 297.444C193.082 295.041 195.047 291.012 196.949 287.108C198.779 283.333 200.513 279.778 204.008 277.658L204.006 276.449Z" fill="url(#paint53_linear_2345_1145)"/>
<path opacity="0.5" d="M200.988 262.595L142.676 297.97L176.268 314.106L201.083 299.051C202.724 298.056 204.05 295.635 204.045 293.653L203.965 264.38C203.961 262.398 202.628 261.6 200.988 262.595Z" fill="white"/>
<path d="M226.102 166.533L208.021 220.412L55.5055 313.708L5.19302 305.556L1.05505 303.063L226.102 166.533Z" fill="url(#paint54_linear_2345_1145)"/>
<path d="M226.309 117.29L223.579 116.97L223.488 83.2647L226.206 79.6252L226.074 30.4152L221.726 27.8147L132.33 82.0485L129.368 87.1563L97.0345 106.773L94.0539 105.272L4.65931 159.506L0.338867 167.364L0.472686 216.572L3.21337 216.897L3.30548 250.606L0.573482 254.235L0.707307 303.443L5.05382 306.046L94.4519 251.812L97.4116 246.72L109.744 239.238L117.413 234.585L129.745 227.105L132.726 228.592L222.122 174.356L226.441 166.496L226.309 117.29Z" fill="url(#paint55_linear_2345_1145)"/>
<g opacity="0.7">
<path d="M81.2717 151.188L81.31 164.758C91.6853 159.055 99.9664 164.38 100.001 177.048C100.012 181.214 99.1305 185.666 97.5716 190.016L107.151 191.369C109.767 184.291 111.259 177.022 111.242 170.229C111.185 150.072 97.8531 141.726 81.2717 151.188Z" fill="white"/>
<path d="M60.8739 200.788C60.8374 188.12 69.0716 172.775 79.4382 165.896L79.4017 152.323C62.8255 162.979 49.5809 187.446 49.6348 207.607C49.6835 226.295 61.1398 234.836 76.018 228.453L77.2902 214.171C68.0097 217.947 60.9051 212.52 60.8739 200.788Z" fill="white"/>
<path d="M80.5035 212.542C80.0482 212.817 79.5981 213.064 79.1549 213.299L77.8776 227.58C78.7535 227.135 79.6433 226.658 80.5418 226.112C91.2577 219.611 100.681 207.268 106.172 193.884L96.5862 192.536C93.0756 200.852 87.1876 208.489 80.5035 212.542Z" fill="white"/>
<path d="M155.079 106.41L155.119 119.982C165.489 114.282 173.775 119.604 173.808 132.272C173.843 144.173 166.575 158.445 157.098 165.83L158.204 178.693C173.388 167.185 185.103 144.418 185.049 125.453C184.995 105.294 171.659 96.9502 155.079 106.41Z" fill="white"/>
<path d="M154.306 167.769C143.499 174.325 134.716 169.059 134.681 156.01C134.674 153.92 134.895 151.755 135.317 149.562L124.582 151.969C123.835 155.656 123.432 159.309 123.442 162.829C123.496 183.376 137.331 191.661 154.342 181.341C155.016 180.932 155.68 180.496 156.341 180.039L155.232 167.179C154.924 167.378 154.622 167.577 154.306 167.769Z" fill="white"/>
<path d="M153.246 121.116L153.211 107.544C140.178 115.926 129.215 132.82 125.147 149.466L135.873 147.062C138.506 136.794 145.241 126.428 153.246 121.116Z" fill="white"/>
</g>
<path d="M226.484 116.835L223.914 116.539L223.824 83.2902L226.554 79.4224L226.321 29.9951L221.73 27.4056L132.099 81.9023L129.236 86.8294L97.1718 106.282L94.0592 104.863L4.41603 159.365L0 167.579L0.30587 217.038L2.87624 217.332L2.96488 250.583L0.234615 254.45L0.4675 303.894L5.06079 306.467L94.6883 251.987L97.5524 247.042L129.617 227.589L132.731 229.01L222.374 174.508L226.789 166.294L226.484 116.835ZM225.868 79.6032L223.308 83.009L223.148 83.4637L223.242 117.186L223.401 117.447L225.972 117.743L226.045 144.31L211.75 127.601L211.641 87.001L225.796 53.036L225.868 79.6032ZM93.9271 105.774L96.8068 107.219L97.0397 107.18L129.375 87.5617L129.608 87.317L132.472 82.3899L150.99 71.1571L130.063 101.052L96.4279 121.459L75.4097 117.009L93.9271 105.774ZM0.922827 254.273L3.48625 250.864L3.64266 250.411L3.55055 216.687L3.39066 216.429L0.820294 216.134L0.747302 189.566L15.0277 206.281L15.1372 246.879L0.994082 280.839L0.922827 254.273ZM132.865 228.099L129.987 226.656L129.751 226.693L97.4151 246.311L97.1822 246.556L94.3216 251.483L75.8024 262.718L96.7269 232.821L130.364 212.414L151.381 216.866L132.865 228.099ZM221.992 174.029L151.998 216.495L130.411 211.986L96.5792 232.542L75.1889 263.09L5.19287 305.556L1.05491 303.063L0.997563 281.566L15.483 246.742L15.3475 205.911L0.747302 188.84L0.689949 167.34L4.80011 159.845L74.7944 117.379L96.381 121.903L130.213 101.331L151.603 70.7846L221.599 28.3187L225.735 30.8096L225.795 52.3092L211.309 87.1289L211.445 127.962L226.043 145.035L226.102 166.533L221.992 174.029Z" fill="white"/>
<path opacity="0.2" d="M200.819 187.282L222.122 174.356L226.441 166.496L226.309 117.29L223.579 116.97L223.488 83.2647L226.206 79.6252L226.074 30.4152L221.726 27.8147L132.33 82.0485L129.368 87.1563L107.545 100.396L200.819 187.282Z" fill="white"/>
<path d="M111.523 521.237L115.189 519.011C117.622 517.531 121.569 517.53 123.986 519.003L293.071 622.255C295.49 623.731 295.48 626.14 293.043 627.615L289.378 629.841C286.929 631.326 282.986 631.32 280.567 629.841L111.482 526.589C109.064 525.114 109.075 522.723 111.523 521.237Z" fill="#2A303D"/>
<path d="M250.61 596.329L123.986 519.005C121.569 517.529 117.624 517.533 115.189 519.012L111.523 521.238C109.075 522.725 109.064 525.113 111.482 526.591L225.685 596.329H250.61Z" fill="url(#paint56_linear_2345_1145)"/>
<path d="M419.488 125.647L419.563 97.686C419.596 85.8013 411.643 71.316 401.789 65.339L299.096 3.03711C289.242 -2.93996 281.241 1.86471 281.208 13.7495L281.13 42.9025C281.095 54.8001 289.049 69.2725 298.903 75.2496L401.596 137.551C405.258 139.772 408.666 140.499 411.502 139.926C411.916 139.84 412.458 139.896 413.089 140.28C413.713 140.658 414.427 141.355 415.173 142.528C418.364 147.519 423.988 151.142 425.472 152.042C425.71 152.185 425.833 152.256 425.84 152.26C420.891 145.462 419.459 136.394 419.488 125.647Z" fill="url(#paint57_linear_2345_1145)"/>
<path d="M372.62 63.438L303.072 21.2441L303.057 26.6971L372.62 68.9V63.438Z" fill="white"/>
<path d="M387.827 84.5923L303.039 33.1544L303.024 38.6073L387.827 90.0562V84.5923Z" fill="white"/>
<path d="M370.665 98.0403L302.975 56.9769L302.959 62.4281L370.665 103.504V98.0403Z" fill="white"/>
<path d="M387.827 96.5227L303.006 45.0665L302.992 50.5177L387.827 101.985V96.5227Z" fill="white"/>
<path d="M669.949 183.556L567.245 121.249C557.403 115.278 549.399 120.071 549.366 131.954L549.291 159.928C549.261 170.66 547.775 177.97 542.805 178.739C542.814 178.743 542.948 178.83 543.201 178.984C544.724 179.908 550.302 183.074 553.49 181.959C554.246 181.697 554.96 181.869 555.584 182.247C556.217 182.631 556.755 183.228 557.15 183.805C559.986 187.819 563.387 191.225 567.049 193.447L669.752 255.754C679.596 261.726 687.601 256.934 687.632 245.049L687.712 215.883C687.743 204.002 679.791 189.528 669.949 183.556Z" fill="url(#paint58_linear_2345_1145)"/>
<path d="M606.369 160.766L564.805 135.55L564.79 141.018L606.369 166.241V160.766Z" fill="white"/>
<path d="M644.82 196.026L564.774 147.462L564.76 152.928L644.82 201.5V196.026Z" fill="white"/>
<path d="M637.434 203.473L564.741 159.372L564.725 164.838L637.434 208.949V203.473Z" fill="white"/>
<path d="M658.506 228.186L564.708 171.283L564.696 176.748L658.506 233.661V228.186Z" fill="white"/>
<defs>
<linearGradient id="paint0_linear_2345_1145" x1="344.382" y1="228.535" x2="344.382" y2="328.462" gradientUnits="userSpaceOnUse">
<stop stop-color="#14DCFF"/>
<stop offset="1" stop-color="#0080FF"/>
</linearGradient>
<linearGradient id="paint1_linear_2345_1145" x1="263.213" y1="224.92" x2="338.965" y2="291.545" gradientUnits="userSpaceOnUse">
<stop stop-color="#14DCFF"/>
<stop offset="1" stop-color="#0080FF"/>
</linearGradient>
<linearGradient id="paint2_linear_2345_1145" x1="315.722" y1="201.926" x2="396.127" y2="274.854" gradientUnits="userSpaceOnUse">
<stop stop-color="#14DCFF"/>
<stop offset="1" stop-color="#0080FF"/>
</linearGradient>
<linearGradient id="paint3_linear_2345_1145" x1="305.178" y1="211.278" x2="339.342" y2="211.278" gradientUnits="userSpaceOnUse">
<stop stop-color="white"/>
<stop offset="1" stop-color="#E6F4FF"/>
</linearGradient>
<linearGradient id="paint4_linear_2345_1145" x1="404.611" y1="205.828" x2="404.611" y2="370.196" gradientUnits="userSpaceOnUse">
<stop stop-color="#FFDB0D"/>
<stop offset="1" stop-color="#FFA408"/>
</linearGradient>
<linearGradient id="paint5_linear_2345_1145" x1="304.226" y1="207.499" x2="414.666" y2="304.633" gradientUnits="userSpaceOnUse">
<stop stop-color="#FFDB0D"/>
<stop offset="1" stop-color="#FFA408"/>
</linearGradient>
<linearGradient id="paint6_linear_2345_1145" x1="375.951" y1="167.867" x2="456.357" y2="240.795" gradientUnits="userSpaceOnUse">
<stop stop-color="#FFDB0D"/>
<stop offset="1" stop-color="#FFA408"/>
</linearGradient>
<linearGradient id="paint7_linear_2345_1145" x1="367.096" y1="176.793" x2="400.317" y2="176.793" gradientUnits="userSpaceOnUse">
<stop stop-color="white"/>
<stop offset="1" stop-color="#E6F4FF"/>
</linearGradient>
<linearGradient id="paint8_linear_2345_1145" x1="401.363" y1="232.763" x2="406.62" y2="221.138" gradientUnits="userSpaceOnUse">
<stop stop-color="#FBDAC9"/>
<stop offset="1" stop-color="#FBBDB5"/>
</linearGradient>
<linearGradient id="paint9_linear_2345_1145" x1="440.101" y1="345.429" x2="452.145" y2="309.162" gradientUnits="userSpaceOnUse">
<stop stop-color="#FBDAC9"/>
<stop offset="1" stop-color="#FBBDB5"/>
</linearGradient>
<linearGradient id="paint10_linear_2345_1145" x1="457.738" y1="355.361" x2="468.415" y2="322.137" gradientUnits="userSpaceOnUse">
<stop stop-color="#FBDAC9"/>
<stop offset="1" stop-color="#FBBDB5"/>
</linearGradient>
<linearGradient id="paint11_linear_2345_1145" x1="436.039" y1="191.552" x2="451.108" y2="176.342" gradientUnits="userSpaceOnUse">
<stop stop-color="#FBDAC9"/>
<stop offset="1" stop-color="#FBBDB5"/>
</linearGradient>
<linearGradient id="paint12_linear_2345_1145" x1="430.106" y1="181.469" x2="452.073" y2="159.294" gradientUnits="userSpaceOnUse">
<stop stop-color="#FBDAC9"/>
<stop offset="1" stop-color="#FBBDB5"/>
</linearGradient>
<linearGradient id="paint13_linear_2345_1145" x1="436.979" y1="188.269" x2="458.942" y2="166.099" gradientUnits="userSpaceOnUse">
<stop stop-color="#FBDAC9"/>
<stop offset="1" stop-color="#FBBDB5"/>
</linearGradient>
<linearGradient id="paint14_linear_2345_1145" x1="466.629" y1="231.235" x2="497.836" y2="241.905" gradientUnits="userSpaceOnUse">
<stop stop-color="#FBDAC9"/>
<stop offset="1" stop-color="#FBBDB5"/>
</linearGradient>
<linearGradient id="paint15_linear_2345_1145" x1="512.864" y1="221.448" x2="524.523" y2="195.665" gradientUnits="userSpaceOnUse">
<stop stop-color="#FBDAC9"/>
<stop offset="1" stop-color="#FBBDB5"/>
</linearGradient>
<linearGradient id="paint16_linear_2345_1145" x1="466.466" y1="238.866" x2="332.208" y2="-29.6482" gradientUnits="userSpaceOnUse">
<stop stop-color="#FBDAC9"/>
<stop offset="1" stop-color="#FBBDB5"/>
</linearGradient>
<linearGradient id="paint17_linear_2345_1145" x1="481.112" y1="240.955" x2="334.545" y2="-52.1775" gradientUnits="userSpaceOnUse">
<stop stop-color="#FBDAC9"/>
<stop offset="1" stop-color="#FBBDB5"/>
</linearGradient>
<linearGradient id="paint18_linear_2345_1145" x1="504.905" y1="200.363" x2="521.45" y2="176.072" gradientUnits="userSpaceOnUse">
<stop stop-color="#FBDAC9"/>
<stop offset="1" stop-color="#FBBDB5"/>
</linearGradient>
<linearGradient id="paint19_linear_2345_1145" x1="513.024" y1="205.881" x2="529.712" y2="181.38" gradientUnits="userSpaceOnUse">
<stop stop-color="#FBDAC9"/>
<stop offset="1" stop-color="#FBBDB5"/>
</linearGradient>
<linearGradient id="paint20_linear_2345_1145" x1="531.708" y1="277.215" x2="543.332" y2="241.047" gradientUnits="userSpaceOnUse">
<stop stop-color="#FBDAC9"/>
<stop offset="1" stop-color="#FBBDB5"/>
</linearGradient>
<linearGradient id="paint21_linear_2345_1145" x1="338.265" y1="454.889" x2="423.439" y2="860.173" gradientUnits="userSpaceOnUse">
<stop stop-color="#55617D"/>
<stop offset="1" stop-color="#363E4F"/>
</linearGradient>
<linearGradient id="paint22_linear_2345_1145" x1="106.775" y1="662.302" x2="364.509" y2="489.7" gradientUnits="userSpaceOnUse">
<stop stop-color="#55617D"/>
<stop offset="1" stop-color="#363E4F"/>
</linearGradient>
<linearGradient id="paint23_linear_2345_1145" x1="431.024" y1="564.043" x2="534.261" y2="564.043" gradientUnits="userSpaceOnUse">
<stop stop-color="#FFA408"/>
<stop offset="1" stop-color="#FFDB0D"/>
</linearGradient>
<linearGradient id="paint24_linear_2345_1145" x1="456.378" y1="534.599" x2="510.474" y2="534.599" gradientUnits="userSpaceOnUse">
<stop stop-color="#0080FF"/>
<stop offset="1" stop-color="#14DCFF"/>
</linearGradient>
<linearGradient id="paint25_linear_2345_1145" x1="503.97" y1="563.471" x2="558.063" y2="563.471" gradientUnits="userSpaceOnUse">
<stop stop-color="#0080FF"/>
<stop offset="1" stop-color="#14DCFF"/>
</linearGradient>
<linearGradient id="paint26_linear_2345_1145" x1="408.568" y1="527.489" x2="486.671" y2="527.489" gradientUnits="userSpaceOnUse">
<stop stop-color="#FFA408"/>
<stop offset="1" stop-color="#FFDB0D"/>
</linearGradient>
<linearGradient id="paint27_linear_2345_1145" x1="441.066" y1="495.872" x2="462.881" y2="495.872" gradientUnits="userSpaceOnUse">
<stop stop-color="#0080FF"/>
<stop offset="1" stop-color="#14DCFF"/>
</linearGradient>
<linearGradient id="paint28_linear_2345_1145" x1="379.185" y1="532.058" x2="407.981" y2="532.058" gradientUnits="userSpaceOnUse">
<stop stop-color="#FFA408"/>
<stop offset="1" stop-color="#FFDB0D"/>
</linearGradient>
<linearGradient id="paint29_linear_2345_1145" x1="312.029" y1="491.856" x2="415.279" y2="491.856" gradientUnits="userSpaceOnUse">
<stop stop-color="#0080FF"/>
<stop offset="1" stop-color="#14DCFF"/>
</linearGradient>
<linearGradient id="paint30_linear_2345_1145" x1="281.329" y1="457.828" x2="367.69" y2="457.828" gradientUnits="userSpaceOnUse">
<stop stop-color="#0080FF"/>
<stop offset="1" stop-color="#14DCFF"/>
</linearGradient>
<linearGradient id="paint31_linear_2345_1145" x1="284.934" y1="435.028" x2="343.889" y2="435.028" gradientUnits="userSpaceOnUse">
<stop stop-color="#FFA408"/>
<stop offset="1" stop-color="#FFDB0D"/>
</linearGradient>
<linearGradient id="paint32_linear_2345_1145" x1="323.519" y1="466.653" x2="391.49" y2="466.653" gradientUnits="userSpaceOnUse">
<stop stop-color="#FFA408"/>
<stop offset="1" stop-color="#FFDB0D"/>
</linearGradient>
<linearGradient id="paint33_linear_2345_1145" x1="388.372" y1="490.254" x2="439.08" y2="490.254" gradientUnits="userSpaceOnUse">
<stop stop-color="#FFA408"/>
<stop offset="1" stop-color="#FFDB0D"/>
</linearGradient>
<linearGradient id="paint34_linear_2345_1145" x1="290.589" y1="411.598" x2="320.098" y2="411.598" gradientUnits="userSpaceOnUse">
<stop stop-color="#0080FF"/>
<stop offset="1" stop-color="#14DCFF"/>
</linearGradient>
<linearGradient id="paint35_linear_2345_1145" x1="202.276" y1="395.16" x2="272.509" y2="395.16" gradientUnits="userSpaceOnUse">
<stop stop-color="#0080FF"/>
<stop offset="1" stop-color="#14DCFF"/>
</linearGradient>
<linearGradient id="paint36_linear_2345_1145" x1="254.43" y1="400.932" x2="296.296" y2="400.932" gradientUnits="userSpaceOnUse">
<stop stop-color="#FFA408"/>
<stop offset="1" stop-color="#FFDB0D"/>
</linearGradient>
<linearGradient id="paint37_linear_2345_1145" x1="141.701" y1="391.949" x2="248.708" y2="391.949" gradientUnits="userSpaceOnUse">
<stop stop-color="#FFA408"/>
<stop offset="1" stop-color="#FFDB0D"/>
</linearGradient>
<linearGradient id="paint38_linear_2345_1145" x1="250.569" y1="466.79" x2="279.358" y2="466.79" gradientUnits="userSpaceOnUse">
<stop stop-color="#0080FF"/>
<stop offset="1" stop-color="#14DCFF"/>
</linearGradient>
<linearGradient id="paint39_linear_2345_1145" x1="231.31" y1="452.102" x2="578.802" y2="452.102" gradientUnits="userSpaceOnUse">
<stop stop-color="#55617D"/>
<stop offset="1" stop-color="#363E4F"/>
</linearGradient>
<linearGradient id="paint40_linear_2345_1145" x1="401.924" y1="577.139" x2="430.72" y2="577.139" gradientUnits="userSpaceOnUse">
<stop stop-color="#FFA408"/>
<stop offset="1" stop-color="#FFDB0D"/>
</linearGradient>
<linearGradient id="paint41_linear_2345_1145" x1="607.426" y1="314.446" x2="607.426" y2="484.032" gradientUnits="userSpaceOnUse">
<stop stop-color="#14DCFF"/>
<stop offset="1" stop-color="#0080FF"/>
</linearGradient>
<linearGradient id="paint42_linear_2345_1145" x1="505.485" y1="316.544" x2="618.734" y2="416.148" gradientUnits="userSpaceOnUse">
<stop stop-color="#14DCFF"/>
<stop offset="1" stop-color="#0080FF"/>
</linearGradient>
<linearGradient id="paint43_linear_2345_1145" x1="578.766" y1="275.565" x2="659.171" y2="348.493" gradientUnits="userSpaceOnUse">
<stop stop-color="#14DCFF"/>
<stop offset="1" stop-color="#0080FF"/>
</linearGradient>
<linearGradient id="paint44_linear_2345_1145" x1="568.222" y1="284.917" x2="602.386" y2="284.917" gradientUnits="userSpaceOnUse">
<stop stop-color="white"/>
<stop offset="1" stop-color="#E6F4FF"/>
</linearGradient>
<linearGradient id="paint45_linear_2345_1145" x1="667.655" y1="411.02" x2="667.655" y2="515.304" gradientUnits="userSpaceOnUse">
<stop stop-color="#FFDB0D"/>
<stop offset="1" stop-color="#FFA408"/>
</linearGradient>
<linearGradient id="paint46_linear_2345_1145" x1="585.187" y1="407.763" x2="663.285" y2="476.451" gradientUnits="userSpaceOnUse">
<stop stop-color="#FFDB0D"/>
<stop offset="1" stop-color="#FFA408"/>
</linearGradient>
<linearGradient id="paint47_linear_2345_1145" x1="638.995" y1="383.643" x2="719.401" y2="456.571" gradientUnits="userSpaceOnUse">
<stop stop-color="#FFDB0D"/>
<stop offset="1" stop-color="#FFA408"/>
</linearGradient>
<linearGradient id="paint48_linear_2345_1145" x1="630.14" y1="392.569" x2="663.361" y2="392.569" gradientUnits="userSpaceOnUse">
<stop stop-color="white"/>
<stop offset="1" stop-color="#E6F4FF"/>
</linearGradient>
<linearGradient id="paint49_linear_2345_1145" x1="142.921" y1="299.072" x2="156.973" y2="413.961" gradientUnits="userSpaceOnUse">
<stop stop-color="#8EA3CF"/>
<stop offset="1" stop-color="#798BB0"/>
</linearGradient>
<linearGradient id="paint50_linear_2345_1145" x1="31.1045" y1="384.45" x2="80.5099" y2="327.503" gradientUnits="userSpaceOnUse">
<stop stop-color="#8EA3CF"/>
<stop offset="1" stop-color="#798BB0"/>
</linearGradient>
<linearGradient id="paint51_linear_2345_1145" x1="66" y1="309.452" x2="234.646" y2="214.512" gradientUnits="userSpaceOnUse">
<stop stop-color="#8EA3CF"/>
<stop offset="1" stop-color="#798BB0"/>
</linearGradient>
<linearGradient id="paint52_linear_2345_1145" x1="84.7043" y1="315.198" x2="204.046" y2="315.198" gradientUnits="userSpaceOnUse">
<stop stop-color="#55617D"/>
<stop offset="1" stop-color="#363E4F"/>
</linearGradient>
<linearGradient id="paint53_linear_2345_1145" x1="214.322" y1="277.921" x2="91.7148" y2="342.18" gradientUnits="userSpaceOnUse">
<stop stop-color="#ED5599"/>
<stop offset="1" stop-color="#FF99C7"/>
</linearGradient>
<linearGradient id="paint54_linear_2345_1145" x1="77.5163" y1="153.628" x2="130.578" y2="261.793" gradientUnits="userSpaceOnUse">
<stop stop-color="#14DCFF"/>
<stop offset="1" stop-color="#14DCFF" stop-opacity="0"/>
</linearGradient>
<linearGradient id="paint55_linear_2345_1145" x1="91.8237" y1="98.1945" x2="192.499" y2="388.786" gradientUnits="userSpaceOnUse">
<stop stop-color="#14DCFF"/>
<stop offset="1" stop-color="#034FFD"/>
</linearGradient>
<linearGradient id="paint56_linear_2345_1145" x1="109.677" y1="557.114" x2="250.61" y2="557.114" gradientUnits="userSpaceOnUse">
<stop stop-color="#0080FF"/>
<stop offset="1" stop-color="#14DCFF"/>
</linearGradient>
<linearGradient id="paint57_linear_2345_1145" x1="334.996" y1="-19.9859" x2="380.903" y2="224.545" gradientUnits="userSpaceOnUse">
<stop stop-color="#FFDB0D"/>
<stop offset="1" stop-color="#FFA408"/>
</linearGradient>
<linearGradient id="paint58_linear_2345_1145" x1="614.079" y1="97.6995" x2="617.276" y2="341.794" gradientUnits="userSpaceOnUse">
<stop stop-color="#14DCFF"/>
<stop offset="1" stop-color="#0080FF"/>
</linearGradient>
</defs>
</svg>
