<svg width="632" height="180" viewBox="0 0 632 180" fill="none" xmlns="http://www.w3.org/2000/svg">
<g opacity="0.9">
<path d="M245.656 81.7188C245.656 86.8646 244.667 91.1667 242.688 94.625C240.729 98.0625 237.885 100.656 234.156 102.406C230.427 104.135 225.938 105 220.688 105H207.75V59.3125H222.094C226.885 59.3125 231.042 60.1667 234.562 61.875C238.083 63.5625 240.812 66.0729 242.75 69.4062C244.688 72.7188 245.656 76.8229 245.656 81.7188ZM235.594 81.9688C235.594 78.5938 235.094 75.8229 234.094 73.6562C233.115 71.4688 231.656 69.8542 229.719 68.8125C227.802 67.7708 225.427 67.25 222.594 67.25H217.438V97H221.594C226.323 97 229.833 95.7396 232.125 93.2188C234.438 90.6979 235.594 86.9479 235.594 81.9688ZM268.688 69.3438C273.375 69.3438 276.969 70.3646 279.469 72.4062C281.969 74.4479 283.219 77.5521 283.219 81.7188V105H276.562L274.719 100.25H274.469C273.469 101.5 272.448 102.521 271.406 103.312C270.365 104.104 269.167 104.688 267.812 105.062C266.458 105.438 264.812 105.625 262.875 105.625C260.812 105.625 258.958 105.229 257.312 104.438C255.688 103.646 254.406 102.438 253.469 100.812C252.531 99.1667 252.062 97.0833 252.062 94.5625C252.062 90.8542 253.365 88.125 255.969 86.375C258.573 84.6042 262.479 83.625 267.688 83.4375L273.75 83.25V81.7188C273.75 79.8854 273.271 78.5417 272.312 77.6875C271.354 76.8333 270.021 76.4062 268.312 76.4062C266.625 76.4062 264.969 76.6458 263.344 77.125C261.719 77.6042 260.094 78.2083 258.469 78.9375L255.312 72.5C257.167 71.5208 259.24 70.75 261.531 70.1875C263.844 69.625 266.229 69.3438 268.688 69.3438ZM273.75 88.8125L270.062 88.9375C266.979 89.0208 264.833 89.5729 263.625 90.5938C262.438 91.6146 261.844 92.9583 261.844 94.625C261.844 96.0833 262.271 97.125 263.125 97.75C263.979 98.3542 265.094 98.6562 266.469 98.6562C268.51 98.6562 270.229 98.0521 271.625 96.8438C273.042 95.6354 273.75 93.9167 273.75 91.6875V88.8125ZM307.781 98.0312C308.823 98.0312 309.833 97.9271 310.812 97.7188C311.812 97.5104 312.802 97.25 313.781 96.9375V104.031C312.76 104.49 311.49 104.865 309.969 105.156C308.469 105.469 306.823 105.625 305.031 105.625C302.948 105.625 301.073 105.292 299.406 104.625C297.76 103.938 296.458 102.76 295.5 101.094C294.562 99.4062 294.094 97.0625 294.094 94.0625V77.2188H289.531V73.1875L294.781 70L297.531 62.625H303.625V70.0625H313.406V77.2188H303.625V94.0625C303.625 95.3958 304 96.3958 304.75 97.0625C305.521 97.7083 306.531 98.0312 307.781 98.0312ZM335.188 69.3438C339.875 69.3438 343.469 70.3646 345.969 72.4062C348.469 74.4479 349.719 77.5521 349.719 81.7188V105H343.062L341.219 100.25H340.969C339.969 101.5 338.948 102.521 337.906 103.312C336.865 104.104 335.667 104.688 334.312 105.062C332.958 105.438 331.312 105.625 329.375 105.625C327.312 105.625 325.458 105.229 323.812 104.438C322.188 103.646 320.906 102.438 319.969 100.812C319.031 99.1667 318.562 97.0833 318.562 94.5625C318.562 90.8542 319.865 88.125 322.469 86.375C325.073 84.6042 328.979 83.625 334.188 83.4375L340.25 83.25V81.7188C340.25 79.8854 339.771 78.5417 338.812 77.6875C337.854 76.8333 336.521 76.4062 334.812 76.4062C333.125 76.4062 331.469 76.6458 329.844 77.125C328.219 77.6042 326.594 78.2083 324.969 78.9375L321.812 72.5C323.667 71.5208 325.74 70.75 328.031 70.1875C330.344 69.625 332.729 69.3438 335.188 69.3438ZM340.25 88.8125L336.562 88.9375C333.479 89.0208 331.333 89.5729 330.125 90.5938C328.938 91.6146 328.344 92.9583 328.344 94.625C328.344 96.0833 328.771 97.125 329.625 97.75C330.479 98.3542 331.594 98.6562 332.969 98.6562C335.01 98.6562 336.729 98.0521 338.125 96.8438C339.542 95.6354 340.25 93.9167 340.25 91.6875V88.8125Z" fill="#2489D3"/>
<path d="M387.281 92.3125C387.281 95.0208 386.625 97.375 385.312 99.375C384 101.375 382.083 102.917 379.562 104C377.062 105.083 374.021 105.625 370.438 105.625C368.854 105.625 367.302 105.521 365.781 105.312C364.281 105.104 362.833 104.802 361.438 104.406C360.062 103.99 358.75 103.479 357.5 102.875V93.875C359.667 94.8333 361.917 95.6979 364.25 96.4688C366.583 97.2396 368.896 97.625 371.188 97.625C372.771 97.625 374.042 97.4167 375 97C375.979 96.5833 376.688 96.0104 377.125 95.2812C377.562 94.5521 377.781 93.7188 377.781 92.7812C377.781 91.6354 377.396 90.6562 376.625 89.8438C375.854 89.0312 374.792 88.2708 373.438 87.5625C372.104 86.8542 370.594 86.0938 368.906 85.2812C367.844 84.7812 366.688 84.1771 365.438 83.4688C364.188 82.7396 363 81.8542 361.875 80.8125C360.75 79.7708 359.823 78.5104 359.094 77.0312C358.385 75.5312 358.031 73.7396 358.031 71.6562C358.031 68.9271 358.656 66.5938 359.906 64.6562C361.156 62.7188 362.938 61.2396 365.25 60.2188C367.583 59.1771 370.333 58.6562 373.5 58.6562C375.875 58.6562 378.135 58.9375 380.281 59.5C382.448 60.0417 384.708 60.8333 387.062 61.875L383.938 69.4062C381.833 68.5521 379.948 67.8958 378.281 67.4375C376.615 66.9583 374.917 66.7188 373.188 66.7188C371.979 66.7188 370.948 66.9167 370.094 67.3125C369.24 67.6875 368.594 68.2292 368.156 68.9375C367.719 69.625 367.5 70.4271 367.5 71.3438C367.5 72.4271 367.812 73.3438 368.438 74.0938C369.083 74.8229 370.042 75.5312 371.312 76.2188C372.604 76.9062 374.208 77.7083 376.125 78.625C378.458 79.7292 380.448 80.8854 382.094 82.0938C383.76 83.2812 385.042 84.6875 385.938 86.3125C386.833 87.9167 387.281 89.9167 387.281 92.3125ZM389.812 70.0625H400.25L406.844 89.7188C407.052 90.3438 407.229 90.9792 407.375 91.625C407.521 92.2708 407.646 92.9375 407.75 93.625C407.854 94.3125 407.938 95.0312 408 95.7812H408.188C408.312 94.6562 408.479 93.6042 408.688 92.625C408.917 91.6458 409.198 90.6771 409.531 89.7188L416 70.0625H426.219L411.438 109.469C410.542 111.885 409.375 113.896 407.938 115.5C406.5 117.125 404.844 118.344 402.969 119.156C401.115 119.969 399.073 120.375 396.844 120.375C395.76 120.375 394.823 120.312 394.031 120.188C393.24 120.083 392.562 119.969 392 119.844V112.281C392.438 112.385 392.99 112.479 393.656 112.562C394.323 112.646 395.021 112.688 395.75 112.688C397.083 112.688 398.229 112.406 399.188 111.844C400.146 111.281 400.948 110.521 401.594 109.562C402.24 108.625 402.75 107.594 403.125 106.469L403.688 104.75L389.812 70.0625ZM451.094 69.4062C454.823 69.4062 457.823 70.4271 460.094 72.4688C462.365 74.4896 463.5 77.7396 463.5 82.2188V105H453.969V84.5938C453.969 82.0938 453.51 80.2083 452.594 78.9375C451.698 77.6667 450.281 77.0312 448.344 77.0312C445.427 77.0312 443.438 78.0208 442.375 80C441.312 81.9792 440.781 84.8333 440.781 88.5625V105H431.25V70.0625H438.531L439.812 74.5312H440.344C441.094 73.3229 442.021 72.3438 443.125 71.5938C444.25 70.8438 445.49 70.2917 446.844 69.9375C448.219 69.5833 449.635 69.4062 451.094 69.4062ZM487.5 105.625C484.042 105.625 481.094 105 478.656 103.75C476.219 102.479 474.365 100.521 473.094 97.875C471.823 95.2292 471.188 91.8438 471.188 87.7188C471.188 83.4479 471.906 79.9688 473.344 77.2812C474.802 74.5729 476.812 72.5833 479.375 71.3125C481.958 70.0417 484.948 69.4062 488.344 69.4062C490.76 69.4062 492.844 69.6458 494.594 70.125C496.365 70.5833 497.906 71.1354 499.219 71.7812L496.406 79.1562C494.906 78.5521 493.51 78.0625 492.219 77.6875C490.927 77.2917 489.635 77.0938 488.344 77.0938C486.677 77.0938 485.292 77.4896 484.188 78.2812C483.083 79.0521 482.26 80.2188 481.719 81.7812C481.177 83.3438 480.906 85.3021 480.906 87.6562C480.906 89.9688 481.198 91.8854 481.781 93.4062C482.365 94.9271 483.208 96.0625 484.312 96.8125C485.417 97.5417 486.76 97.9062 488.344 97.9062C490.323 97.9062 492.083 97.6458 493.625 97.125C495.167 96.5833 496.667 95.8333 498.125 94.875V103.031C496.667 103.948 495.135 104.604 493.531 105C491.948 105.417 489.938 105.625 487.5 105.625Z" fill="#FFBF18"/>
</g>
<path d="M154.374 39.945C152.112 39.7316 149.845 39.7257 147.584 39.9585C143.381 31.3069 137.226 24.4967 129.199 19.9089C122.96 16.3455 115.877 14.1316 108.376 14.1316C92.9808 14.1316 79.0362 20.8123 68.8918 31.6227C76.5054 25.7734 85.9999 22.4792 96.0114 22.4792C114.554 22.4792 131.126 33.8553 137.241 50.7817L139.407 56.7749C147.291 54.6821 154.628 53.137 162.196 57.3608C170.034 61.7361 175.411 70.5723 175.411 80.7478C175.411 88.4224 172.275 95.3519 167.094 100.512C158.638 108.932 146.358 106.824 135.904 107.045C126.537 107.24 103.245 107.071 100.979 107.071L137.641 137.992L134.924 121.777C137.4 121.763 150.691 121.777 151.067 121.777C171.984 121.777 189 103.292 189 80.7181C188.999 59.3461 173.748 41.7584 154.374 39.945Z" fill="url(#paint0_linear_2467_1127)"/>
<path d="M42.827 35.9584C47.8988 35.9474 53.4831 37.7499 53.4831 37.7499C53.4831 37.7499 64.1336 6.31747 105.065 6.31747C112.563 6.31747 119.716 7.91419 126.256 10.7876C116.687 3.91646 105.015 0 92.708 0C75.2369 0 58.5698 8.0378 47.7817 21.5837C45.9984 21.3424 44.3816 21.2239 42.8506 21.2239C19.2065 21.2239 0 42.032 0 67.6075C0 92.7707 17.4656 113.311 41.9263 113.883V113.893H98.2679L63.6691 82.1008L66.3878 99.6512C64.1564 99.6597 43.9996 99.6512 43.3355 99.6512C27.1817 99.6512 13.5358 85.0665 13.5358 67.804C13.5374 50.2443 26.6763 36.0008 42.827 35.9584Z" fill="url(#paint1_linear_2467_1127)"/>
<defs>
<linearGradient id="paint0_linear_2467_1127" x1="159.103" y1="3.36295" x2="110.448" y2="84.2207" gradientUnits="userSpaceOnUse">
<stop stop-color="#FFBF18"/>
<stop offset="1" stop-color="#FFE100"/>
</linearGradient>
<linearGradient id="paint1_linear_2467_1127" x1="67.843" y1="31.7229" x2="30.2839" y2="126.672" gradientUnits="userSpaceOnUse">
<stop stop-color="#0072BB"/>
<stop offset="1" stop-color="#009BFF"/>
</linearGradient>
</defs>
</svg>
