<svg width="189" height="138" viewBox="0 0 189 138" fill="none" xmlns="http://www.w3.org/2000/svg">
<path d="M154.374 39.945C152.112 39.7316 149.845 39.7257 147.584 39.9585C143.381 31.3069 137.226 24.4967 129.199 19.9089C122.96 16.3455 115.877 14.1316 108.376 14.1316C92.9808 14.1316 79.0362 20.8123 68.8918 31.6227C76.5054 25.7734 85.9999 22.4792 96.0114 22.4792C114.554 22.4792 131.126 33.8553 137.241 50.7817L139.407 56.7749C147.291 54.6821 154.628 53.137 162.196 57.3608C170.034 61.7361 175.411 70.5723 175.411 80.7478C175.411 88.4224 172.275 95.3519 167.094 100.512C158.638 108.932 146.358 106.824 135.904 107.045C126.537 107.24 103.245 107.071 100.979 107.071L137.641 137.992L134.924 121.777C137.4 121.763 150.691 121.777 151.067 121.777C171.984 121.777 189 103.292 189 80.7181C188.999 59.3461 173.748 41.7584 154.374 39.945Z" fill="url(#paint0_linear_2274_9272)"/>
<path d="M42.827 35.9584C47.8988 35.9474 53.4831 37.7499 53.4831 37.7499C53.4831 37.7499 64.1336 6.31747 105.065 6.31747C112.563 6.31747 119.716 7.91419 126.256 10.7876C116.687 3.91646 105.015 0 92.708 0C75.2369 0 58.5698 8.0378 47.7817 21.5837C45.9984 21.3424 44.3816 21.2239 42.8506 21.2239C19.2065 21.2239 0 42.032 0 67.6075C0 92.7707 17.4656 113.311 41.9263 113.883V113.893H98.2679L63.6691 82.1008L66.3878 99.6512C64.1564 99.6597 43.9996 99.6512 43.3355 99.6512C27.1817 99.6512 13.5358 85.0665 13.5358 67.804C13.5374 50.2443 26.6763 36.0008 42.827 35.9584Z" fill="url(#paint1_linear_2274_9272)"/>
<defs>
<linearGradient id="paint0_linear_2274_9272" x1="159.103" y1="3.36295" x2="110.448" y2="84.2207" gradientUnits="userSpaceOnUse">
<stop stop-color="#FFBF18"/>
<stop offset="1" stop-color="#FFE100"/>
</linearGradient>
<linearGradient id="paint1_linear_2274_9272" x1="67.843" y1="31.7229" x2="30.2839" y2="126.672" gradientUnits="userSpaceOnUse">
<stop stop-color="#0072BB"/>
<stop offset="1" stop-color="#009BFF"/>
</linearGradient>
</defs>
</svg>
